<svg width="17" height="17" viewBox="0 0 17 17" fill="none" xmlns="http://www.w3.org/2000/svg">
<g clip-path="url(#clip0_17266_3920)">
<path d="M15.7409 3.00476H11.7832V1.83753C11.7832 0.82053 10.9826 0 9.99038 0H6.61899C5.62675 0 4.82618 0.82053 4.82618 1.83753V3.00476H0.868465C0.55275 3.00476 0.304688 3.25901 0.304688 3.5826C0.304688 3.90619 0.55275 4.16044 0.868465 4.16044H2.58235L3.47312 15.2087C3.55204 16.2141 4.37516 16.9884 5.35613 16.9884H11.242C12.2229 16.9884 13.0461 16.2141 13.125 15.2087L14.0158 4.16044H15.7296C16.0454 4.16044 16.2934 3.90619 16.2934 3.5826C16.2934 3.25901 16.0454 3.00476 15.7296 3.00476H15.7409ZM5.95374 1.83753C5.95374 1.46771 6.2469 1.15568 6.61899 1.15568H9.99038C10.3512 1.15568 10.6556 1.45615 10.6556 1.83753V3.00476H5.95374V1.83753Z" fill="#4E5871"/>
</g>
<defs>
<clipPath id="clip0_17266_3920">
<rect width="16" height="17" fill="white" transform="translate(0.304688)"/>
</clipPath>
</defs>
</svg>
