<svg width="39" height="21" viewBox="0 0 39 21" fill="none" xmlns="http://www.w3.org/2000/svg">
<g clip-path="url(#clip0_17266_3923)">
<path d="M31.2952 17.641C30.9849 17.641 30.6745 17.5216 30.4597 17.2829C29.9822 16.8054 29.9822 16.0654 30.4597 15.5879L35.8072 10.2404L30.4597 4.8929C29.9822 4.41545 29.9822 3.67539 30.4597 3.19794C30.9371 2.72048 31.6772 2.72048 32.1546 3.19794L38.3377 9.38099C38.8151 9.85845 38.8151 10.5985 38.3377 11.076L32.1546 17.259C31.9159 17.4977 31.6055 17.6171 31.3191 17.6171L31.2952 17.641Z" fill="#4E5871"/>
<path d="M7.68138 17.6405C7.37104 17.6405 7.06069 17.5212 6.84584 17.2825L0.66278 11.0994C0.185323 10.6219 0.185323 9.88189 0.66278 9.40443L6.84584 3.22137C7.32329 2.74392 8.06335 2.74392 8.54081 3.22137C9.01826 3.69883 9.01826 4.43889 8.54081 4.91634L3.1933 10.2639L8.54081 15.6114C9.01826 16.0888 9.01826 16.8289 8.54081 17.3063C8.30208 17.5451 7.99173 17.6644 7.70526 17.6644L7.68138 17.6405Z" fill="#4E5871"/>
<path d="M15.419 4.82231C16.7506 4.82231 17.8301 3.7428 17.8301 2.41115C17.8301 1.07951 16.7506 0 15.419 0C14.0873 0 13.0078 1.07951 13.0078 2.41115C13.0078 3.7428 14.0873 4.82231 15.419 4.82231Z" fill="#4E5871"/>
<path d="M15.419 12.7481C16.7506 12.7481 17.8301 11.6686 17.8301 10.3369C17.8301 9.00529 16.7506 7.92578 15.419 7.92578C14.0873 7.92578 13.0078 9.00529 13.0078 10.3369C13.0078 11.6686 14.0873 12.7481 15.419 12.7481Z" fill="#4E5871"/>
<path d="M15.419 20.6504C16.7506 20.6504 17.8301 19.5709 17.8301 18.2393C17.8301 16.9076 16.7506 15.8281 15.419 15.8281C14.0873 15.8281 13.0078 16.9076 13.0078 18.2393C13.0078 19.5709 14.0873 20.6504 15.419 20.6504Z" fill="#4E5871"/>
<path d="M23.8408 4.82231C25.1725 4.82231 26.252 3.7428 26.252 2.41115C26.252 1.07951 25.1725 0 23.8408 0C22.5092 0 21.4297 1.07951 21.4297 2.41115C21.4297 3.7428 22.5092 4.82231 23.8408 4.82231Z" fill="#4E5871"/>
<path d="M23.8408 12.7481C25.1725 12.7481 26.252 11.6686 26.252 10.3369C26.252 9.00529 25.1725 7.92578 23.8408 7.92578C22.5092 7.92578 21.4297 9.00529 21.4297 10.3369C21.4297 11.6686 22.5092 12.7481 23.8408 12.7481Z" fill="#4E5871"/>
<path d="M23.8408 20.6504C25.1725 20.6504 26.252 19.5709 26.252 18.2393C26.252 16.9076 25.1725 15.8281 23.8408 15.8281C22.5092 15.8281 21.4297 16.9076 21.4297 18.2393C21.4297 19.5709 22.5092 20.6504 23.8408 20.6504Z" fill="#4E5871"/>
</g>
<defs>
<clipPath id="clip0_17266_3923">
<rect width="38.3636" height="20.65" fill="white" transform="translate(0.304688)"/>
</clipPath>
</defs>
</svg>
